# This file uses centimeters as units for non-parametric coordinates.

mtllib ConcreteCorner.mtl
g default
v 0.500000 -0.500000 0.500000
v 0.500000 0.334651 0.500000
v 0.500000 -0.500000 -0.309788
v 0.500000 -0.082674 -0.309790
v 0.500000 0.239556 -0.500000
v 0.500000 0.334651 -0.404905
v 0.500000 -0.082674 -0.404904
v 0.500000 0.012420 -0.499999
v -0.309788 -0.500000 -0.309788
v 0.500000 0.334651 0.500000
v 0.500000 -0.500000 0.500000
v -0.309790 -0.082674 -0.309790
v -0.500000 0.239556 -0.500000
v -0.404905 0.334651 -0.404905
v -0.499999 0.012420 -0.499999
v -0.404904 -0.082674 -0.404904
v -0.309788 -0.500000 0.500000
v -0.309790 -0.082674 0.500000
v -0.500000 0.239556 0.500000
v -0.404905 0.334651 0.500000
v -0.404904 -0.082674 0.500000
v -0.499999 0.012420 0.500000
vt 0.276896 0.998008
vt 0.001854 0.998008
vt 0.001854 0.731160
vt 0.139375 0.731159
vt 0.139375 0.699817
vt 0.170711 0.668480
vt 0.245559 0.668480
vt 0.276896 0.699816
vt 0.581418 0.001992
vt 0.612754 0.001992
vt 0.662121 0.335236
vt 0.481836 0.335236
vt 0.513179 0.335236
vt 0.450500 0.335236
vt 0.618840 0.001992
vt 0.693688 0.001992
vt 0.518890 0.335236
vt 0.656410 0.335236
vt 0.662121 0.602084
vt 0.656410 0.602084
vt 0.283226 0.001992
vt 0.276896 0.998008
vt 0.928970 0.335236
vt 0.001854 0.998008
vt 0.513179 0.602085
vt 0.518890 0.602085
vt 0.618840 0.331520
vt 0.612754 0.331520
vt 0.581418 0.300184
vt 0.693688 0.331520
vt 0.450500 0.664764
vt 0.481836 0.633427
vt 0.276896 0.998008
vt 0.001854 0.998008
vt 0.001854 0.998008
vt 0.001854 0.731160
vt 0.139375 0.731159
vt 0.139375 0.699817
vt 0.170711 0.668480
vt 0.245559 0.668480
vt 0.276896 0.699816
vt 0.276896 0.998008
vt 0.450500 0.335236
vt 0.481836 0.335236
vt 0.481836 0.633427
vt 0.450500 0.664764
vt 0.581418 0.300184
vt 0.283226 0.001992
vt 0.581418 0.001992
vt 0.693688 0.331520
vt 0.618840 0.331520
vt 0.618840 0.001992
vt 0.693688 0.001992
vt 0.928970 0.335236
vt 0.662121 0.602084
vt 0.662121 0.335236
vt 0.656410 0.602084
vt 0.518890 0.602085
vt 0.518890 0.335236
vt 0.656410 0.335236
vt 0.513179 0.602085
vt 0.513179 0.335236
vt 0.612754 0.331520
vt 0.612754 0.001992
vn 0.000000 -0.000000 0.000000
vn 1.000000 -0.000000 0.000000
vn 1.000000 -0.000000 0.000000
vn 1.000000 -0.000000 0.000000
vn 1.000000 -0.000000 0.000000
vn 1.000000 -0.000000 0.000000
vn 1.000000 -0.000000 0.000000
vn 1.000000 -0.000000 0.000000
vn 1.000000 -0.000000 0.000000
vn 0.000000 -0.000000 0.000000
vn 0.000000 -0.707109 -0.707105
vn 0.000000 -0.707109 -0.707105
vn 0.000000 -0.707109 -0.707105
vn 0.000000 -0.707109 -0.707105
vn 0.000000 1.000000 0.000000
vn 0.000000 1.000000 0.000000
vn 0.000000 1.000000 0.000000
vn 0.000000 -0.000004 -1.000000
vn 0.000000 -0.000004 -1.000000
vn 0.000000 -0.000004 -1.000000
vn 0.000000 -0.000004 -1.000000
vn 0.000000 -1.000000 0.000000
vn 0.000000 -1.000000 0.000000
vn 0.000000 -1.000000 0.000000
vn 0.000000 -0.000005 -1.000000
vn 0.000000 -0.000005 -1.000000
vn 0.000000 -0.000005 -1.000000
vn 0.000000 -0.000005 -1.000000
vn 0.000000 -1.000000 0.000000
vn 0.000000 -1.000000 0.000000
vn 0.000000 -1.000000 0.000000
vn 0.000000 -1.000000 0.000000
vn -0.000000 0.707105 -0.707109
vn -0.000000 0.707105 -0.707109
vn -0.000000 0.707105 -0.707109
vn -0.000000 0.707105 -0.707109
vn 0.000000 0.000000 0.000000
vn 0.000000 0.000000 0.000000
vn 0.000000 0.000000 1.000000
vn 0.000000 0.000000 1.000000
vn 0.000000 0.000000 1.000000
vn 0.000000 0.000000 1.000000
vn 0.000000 0.000000 1.000000
vn 0.000000 0.000000 1.000000
vn 0.000000 0.000000 1.000000
vn 0.000000 0.000000 1.000000
vn -0.707105 -0.707109 0.000000
vn -0.707105 -0.707109 0.000000
vn -0.707105 -0.707109 0.000000
vn -0.707105 -0.707109 0.000000
vn 0.000000 1.000000 0.000000
vn -1.000000 -0.000004 0.000000
vn -1.000000 -0.000004 0.000000
vn -1.000000 -0.000004 0.000000
vn -1.000000 -0.000004 0.000000
vn 0.000000 -1.000000 0.000000
vn -1.000000 -0.000005 0.000000
vn -1.000000 -0.000005 0.000000
vn -1.000000 -0.000005 0.000000
vn -1.000000 -0.000005 0.000000
vn 0.000000 -1.000000 0.000000
vn 0.000000 -1.000000 0.000000
vn -0.707109 0.707105 -0.000000
vn -0.707109 0.707105 -0.000000
vn -0.707109 0.707105 -0.000000
vn -0.707109 0.707105 -0.000000
s off
g pCube6
usemtl lambert3SG
f 2/1/1 1/2/2 11/24/3 3/3/4 4/4/5 7/5/6 8/6/7 5/7/8 6/8/9 10/22/10
f 8/14/11 7/12/12 16/32/13 15/31/14
s 1
f 14/29/15 10/21/16 6/9/17
s off
f 15/30/18 13/27/19 5/15/20 8/16/21
s 2
f 11/23/22 9/19/23 3/11/24
s off
f 9/20/25 12/26/26 4/17/27 3/18/28
s 3
f 12/25/29 16/32/30 7/12/31 4/13/32
s off
f 13/28/33 14/29/34 6/9/35 5/10/36
f 2/33/37 10/42/38 20/41/39 19/40/40 22/39/41 21/38/42 18/37/43 17/36/44 11/35/45 1/34/46
f 22/43/47 15/46/48 16/45/49 21/44/50
s 1
f 14/47/15 20/49/51 10/48/16
s off
f 15/50/52 22/53/53 19/52/54 13/51/55
s 2
f 11/54/22 17/56/56 9/55/23
s off
f 9/57/57 17/60/58 18/59/59 12/58/60
s 3
f 12/61/29 18/62/61 21/44/62 16/45/30
s off
f 13/63/63 19/64/64 20/49/65 14/47/66
