# This file uses centimeters as units for non-parametric coordinates.

mtllib Printer.mtl
g default
v -0.098192 0.556844 -0.162141
v 0.137346 0.559981 -0.116184
v -0.036773 0.534834 -0.475419
v 0.198765 0.537971 -0.429462
v -0.440194 -0.440194 0.500000
v 0.440194 -0.440194 0.500000
v -0.440194 0.183587 0.500000
v 0.440194 0.183587 0.500000
v -0.440194 0.183587 -0.500000
v 0.440194 0.183587 -0.500000
v -0.440194 -0.440194 -0.500000
v 0.440194 -0.440194 -0.500000
v -0.373183 0.232186 0.423885
v 0.373183 0.232186 0.423885
v 0.373183 0.232186 -0.423884
v -0.373183 0.232186 -0.423884
v -0.439462 0.286439 0.499169
v 0.439462 0.286439 0.499169
v 0.439462 0.286439 -0.499168
v -0.439462 0.286439 -0.499168
v -0.439462 0.446349 0.499169
v 0.439462 0.446349 0.499169
v 0.439462 0.446349 -0.499168
v -0.439462 0.446349 -0.499168
v -0.439462 0.729248 0.461864
v 0.439462 0.729248 0.461864
v 0.439462 0.527933 -0.515965
v -0.439462 0.527933 -0.515965
v -0.439462 0.647664 0.478661
v 0.439462 0.647664 0.478661
v 0.439462 0.446349 -0.499168
v -0.439462 0.446349 -0.499168
v 0.439462 0.628591 -0.027050
v -0.439462 0.628591 -0.027050
v 0.219731 0.628591 -0.027050
v 0.219731 0.527933 -0.515965
v -0.219731 0.527933 -0.515965
v -0.219731 0.628591 -0.027050
v 0.219731 0.561319 -0.026899
v 0.219731 0.527933 -0.515965
v -0.219731 0.527933 -0.515965
v -0.219731 0.561319 -0.026899
v -0.163705 -0.128303 0.500000
v 0.163705 -0.128303 0.500000
v -0.163705 -0.284249 0.500000
v 0.163705 -0.284249 0.500000
v -0.163705 -0.128303 0.298007
v -0.163705 -0.284249 0.298007
v 0.163705 -0.284249 0.298007
v 0.163705 -0.128303 0.298007
v -0.137346 0.568334 -0.116184
v -0.198765 0.546324 -0.429462
v 0.036773 0.543187 -0.475419
v 0.098192 0.565197 -0.162141
v 0.070354 0.449874 0.465551
v -0.165127 0.449381 0.419203
v -0.103328 0.448785 0.105227
v 0.132153 0.449279 0.151575
v -0.109245 -0.281445 0.620773
v -0.109949 -0.282040 0.300774
v 0.130049 -0.282534 0.300247
v 0.130753 -0.281938 0.620246
vt 0.056798 0.875898
vt 0.056798 0.904964
vt 0.056798 0.904964
vt 0.056798 0.875898
vt 0.051129 0.875898
vt 0.051129 0.890431
vt 0.051129 0.890431
vt 0.051129 0.875898
vt 0.229576 0.942345
vt 0.047476 0.942345
vt 0.047476 0.650417
vt 0.801073 0.039565
vt 0.815260 0.061786
vt 0.831098 0.039808
vt 0.023564 0.811870
vt 0.023564 0.519941
vt 0.205664 0.519941
vt 0.923963 0.331494
vt 0.938151 0.061786
vt 0.953989 0.039808
vt 0.665696 0.795364
vt 0.606926 0.509908
vt 0.630743 0.505004
vt 0.660128 0.647732
vt 0.689513 0.790461
vt 0.518671 0.790461
vt 0.577441 0.505004
vt 0.601258 0.509908
vt 0.571873 0.652636
vt 0.542488 0.795364
vt 0.444542 0.855280
vt 0.415157 0.998008
vt 0.415157 0.998008
vt 0.424904 0.855236
vt 0.380103 0.855236
vt 0.409488 0.997964
vt 0.389850 0.998008
vt 0.380103 0.855236
vt 0.642341 0.436516
vt 0.596817 0.436516
vt 0.596817 0.377549
vt 0.642341 0.377549
vt 0.545623 0.377549
vt 0.591148 0.377549
vt 0.591148 0.436516
vt 0.545623 0.436516
vt 0.173238 0.003624
vt 0.173487 0.228477
vt 0.005355 0.229137
vt 0.004781 0.003752
vt 0.732935 0.505004
vt 0.989518 0.505004
vt 0.989518 0.647732
vt 0.925372 0.647732
vt 0.797080 0.647732
vt 0.732935 0.647732
vt 0.925372 0.790461
vt 0.989518 0.790461
vt 0.797080 0.790461
vt 0.732935 0.790461
vt 0.514130 0.001992
vt 0.771140 0.001992
vt 0.771140 0.293921
vt 0.514130 0.293921
vt 0.911779 0.087488
vt 0.911779 0.378932
vt 0.655196 0.378932
vt 0.655196 0.087488
vt 0.892955 0.070733
vt 0.892955 0.356190
vt 0.636372 0.356190
vt 0.636372 0.070733
vt 0.318419 0.853011
vt 0.318419 0.995784
vt 0.190127 0.995784
vt 0.190127 0.853011
vt 0.847551 0.451383
vt 0.788584 0.451383
vt 0.788584 0.355803
vt 0.847551 0.355803
vt 0.723947 0.473129
vt 0.723947 0.377549
vt 0.782915 0.377549
vt 0.782915 0.473129
vt 0.004797 0.003759
vt 0.173236 0.003627
vt 0.173511 0.228467
vt 0.005364 0.229140
vt 0.369638 0.005244
vt 0.370341 0.229180
vt 0.200680 0.229194
vt 0.200717 0.004892
vt 0.006422 0.252590
vt 0.173526 0.252957
vt 0.173036 0.475763
vt 0.005932 0.475396
vt 0.494963 0.506447
vt 0.494963 0.688547
vt 0.749807 0.345003
vt 0.237953 0.506447
vt 0.318668 0.597497
vt 0.414248 0.597497
vt 0.414248 0.551972
vt 0.318668 0.551972
vt 0.763994 0.107555
vt 0.779832 0.088206
vt 0.231315 0.705032
vt 0.883581 0.072159
vt 0.488326 0.887132
vt 0.231315 0.887132
vt 0.869393 0.309607
vt 0.853556 0.328956
vt 0.790766 0.849324
vt 0.790766 0.592740
vt 0.814583 0.592740
vt 0.814583 0.849324
vt 0.845196 0.592740
vt 0.845196 0.849324
vt 0.821379 0.849324
vt 0.821379 0.785178
vt 0.821379 0.656886
vt 0.821379 0.592740
vt 0.374435 0.855236
vt 0.374435 0.983527
vt 0.354796 0.983527
vt 0.354796 0.855236
vt 0.853220 0.451383
vt 0.853220 0.355803
vt 0.898745 0.355803
vt 0.898745 0.451383
vt 0.749807 0.087992
vt 0.801073 0.331494
vt 0.488326 0.705032
vt 0.229576 0.650417
vt 0.779832 0.344789
vt 0.953989 0.331252
vt 0.853555 0.072373
vt 0.938151 0.309274
vt 0.831098 0.331252
vt 0.869393 0.091722
vt 0.815260 0.309274
vt 0.763994 0.325441
vt 0.205664 0.811870
vt 0.883581 0.329170
vt 0.923963 0.039565
vt 0.237953 0.688547
vt 0.996072 0.912349
vt 0.504758 0.912349
vt 0.504758 0.833652
vt 0.996072 0.833652
vt 0.996072 0.830088
vt 0.504758 0.830088
vt 0.504758 0.751391
vt 0.996072 0.751391
vt 0.563544 0.918034
vt 0.996091 0.918034
vt 0.996091 0.996731
vt 0.563544 0.996731
vt 0.504758 0.664975
vt 0.937305 0.664975
vt 0.937305 0.743672
vt 0.504758 0.743672
vn 0.000373 0.997546 -0.070011
vn 0.000373 0.997546 -0.070011
vn 0.000373 0.997546 -0.070011
vn 0.000373 0.997546 -0.070011
vn 0.000000 0.000000 1.000000
vn 0.000000 0.000000 1.000000
vn 0.000000 0.000000 1.000000
vn 0.000000 0.000000 1.000000
vn 0.000000 0.000000 1.000000
vn 0.000000 0.000000 1.000000
vn 0.000000 0.000000 1.000000
vn 0.000000 0.000000 1.000000
vn 0.000000 0.979457 -0.201651
vn 0.000000 0.979457 -0.201651
vn 0.000000 0.979457 -0.201651
vn 0.000000 0.979457 -0.201651
vn 0.000000 0.979457 -0.201651
vn 0.000000 0.979457 -0.201651
vn 0.000000 0.000000 -1.000000
vn 0.000000 0.000000 -1.000000
vn 0.000000 0.000000 -1.000000
vn 0.000000 0.000000 -1.000000
vn 0.000000 -1.000000 0.000000
vn 0.000000 -1.000000 0.000000
vn 0.000000 -1.000000 0.000000
vn 0.000000 -1.000000 0.000000
vn 1.000000 0.000000 0.000000
vn 1.000000 0.000000 0.000000
vn 1.000000 0.000000 0.000000
vn 1.000000 0.000000 0.000000
vn -1.000000 0.000000 0.000000
vn -1.000000 0.000000 0.000000
vn -1.000000 0.000000 0.000000
vn -1.000000 0.000000 0.000000
vn 0.000000 0.842848 0.538151
vn 0.000000 0.842848 0.538151
vn 0.000000 0.842848 0.538151
vn 0.000000 0.842848 0.538151
vn 0.587094 0.809519 0.000000
vn 0.587094 0.809519 0.000000
vn 0.587094 0.809519 0.000000
vn 0.587094 0.809519 0.000000
vn 0.000000 0.842848 -0.538151
vn 0.000000 0.842848 -0.538151
vn 0.000000 0.842848 -0.538151
vn 0.000000 0.842848 -0.538151
vn -0.587094 0.809519 0.000000
vn -0.587094 0.809519 0.000000
vn -0.587094 0.809519 0.000000
vn -0.587094 0.809519 0.000000
vn 0.000000 -0.811287 0.584648
vn 0.000000 -0.811287 0.584648
vn 0.000000 -0.811287 0.584648
vn 0.000000 -0.811287 0.584648
vn 0.633410 -0.773817 0.000000
vn 0.633410 -0.773817 0.000000
vn 0.633410 -0.773817 0.000000
vn 0.633410 -0.773817 0.000000
vn 0.000000 -0.811287 -0.584648
vn 0.000000 -0.811287 -0.584648
vn 0.000000 -0.811287 -0.584648
vn 0.000000 -0.811287 -0.584648
vn -0.633409 -0.773817 0.000000
vn -0.633409 -0.773817 0.000000
vn -0.633409 -0.773817 0.000000
vn -0.633409 -0.773817 0.000000
vn 0.000000 0.201648 0.979458
vn 0.000000 0.201648 0.979458
vn 0.000000 0.201648 0.979458
vn 0.000000 0.201648 0.979458
vn 1.000000 0.000000 0.000000
vn 1.000000 0.000000 0.000000
vn 1.000000 0.000000 0.000000
vn 1.000000 0.000000 0.000000
vn 1.000000 0.000000 0.000000
vn 0.000000 -0.201651 -0.979457
vn 0.000000 -0.201651 -0.979457
vn 0.000000 -0.201651 -0.979457
vn 0.000000 -0.201651 -0.979457
vn 0.000000 -0.201651 -0.979457
vn 0.000000 -0.201651 -0.979457
vn -1.000000 -0.000000 0.000000
vn -1.000000 -0.000000 0.000000
vn -1.000000 -0.000000 0.000000
vn -1.000000 -0.000000 0.000000
vn -1.000000 -0.000000 0.000000
vn 0.000000 0.000000 1.000000
vn 0.000000 0.000000 1.000000
vn 0.000000 0.000000 1.000000
vn 0.000000 0.000000 1.000000
vn 1.000000 0.000000 0.000000
vn 1.000000 0.000000 0.000000
vn 1.000000 0.000000 0.000000
vn 1.000000 0.000000 0.000000
vn 0.000000 0.000000 -1.000000
vn 0.000000 0.000000 -1.000000
vn 0.000000 0.000000 -1.000000
vn 0.000000 0.000000 -1.000000
vn -1.000000 0.000000 0.000000
vn -1.000000 0.000000 0.000000
vn -1.000000 0.000000 0.000000
vn -1.000000 0.000000 0.000000
vn 0.000000 0.000000 0.000000
vn 0.000000 0.000000 0.000000
vn 0.000000 0.000000 0.000000
vn 0.000000 0.000000 0.000000
vn 0.000000 1.000000 0.000000
vn 0.000000 1.000000 0.000000
vn 0.000000 1.000000 0.000000
vn 0.000000 1.000000 0.000000
vn 0.000000 -0.979458 0.201651
vn 0.000000 -0.979458 0.201651
vn 0.000000 -0.979458 0.201651
vn 0.000000 -0.979458 0.201651
vn 0.000000 0.997678 -0.068107
vn 0.000000 0.997678 -0.068107
vn 0.000000 0.997678 -0.068107
vn 0.000000 0.997678 -0.068107
vn 0.000000 0.979457 -0.201651
vn 0.000000 0.979457 -0.201651
vn 0.000000 0.979457 -0.201651
vn 0.000000 0.979457 -0.201651
vn -1.000000 0.000000 0.000000
vn -0.000000 0.000000 0.000000
vn -0.000000 0.000000 0.000000
vn -1.000000 0.000000 0.000000
vn 0.000000 0.000000 0.000000
vn 0.000000 0.000000 0.000000
vn 0.000000 0.000000 0.000000
vn 0.000000 0.000000 0.000000
vn 0.000000 0.000000 0.000000
vn 1.000000 0.000000 0.000000
vn 1.000000 0.000000 0.000000
vn 0.000000 0.000000 0.000000
vn -0.000000 -0.002255 -0.999998
vn -0.000000 -0.002255 -0.999998
vn -0.000000 -0.002255 -0.999998
vn -0.000000 -0.002255 -0.999998
vn 0.000000 0.000000 1.000000
vn 0.000000 0.000000 1.000000
vn 0.000000 0.000000 1.000000
vn 0.000000 0.000000 1.000000
vn 1.000000 0.000000 0.000000
vn 1.000000 0.000000 0.000000
vn 1.000000 0.000000 0.000000
vn 1.000000 0.000000 0.000000
vn 0.000000 1.000000 0.000000
vn 0.000000 1.000000 0.000000
vn 0.000000 1.000000 0.000000
vn 0.000000 1.000000 0.000000
vn -1.000000 0.000000 0.000000
vn -1.000000 0.000000 0.000000
vn -1.000000 0.000000 0.000000
vn -1.000000 0.000000 0.000000
vn 0.000000 -1.000000 0.000000
vn 0.000000 -1.000000 0.000000
vn 0.000000 -1.000000 0.000000
vn 0.000000 -1.000000 0.000000
vn -0.000373 0.997546 -0.070011
vn -0.000373 0.997546 -0.070011
vn -0.000373 0.997546 -0.070011
vn -0.000373 0.997546 -0.070011
vn -0.001659 0.999996 -0.002223
vn -0.001659 0.999996 -0.002223
vn -0.001659 0.999996 -0.002223
vn -0.001659 0.999996 -0.002223
vn 0.002053 0.999996 -0.001865
vn 0.002053 0.999996 -0.001865
vn 0.002053 0.999996 -0.001865
vn 0.002053 0.999996 -0.001865
s off
g pPlane2
usemtl lambert2SG
f 2/47/1 4/48/2 3/49/3 1/50/4
f 6/97/5 8/98/6 7/146/7 5/100/8 43/101/9 44/102/10 46/103/11 45/104/12
s 1
f 25/51/13 26/52/14 33/53/15 35/54/16 38/55/17 34/56/18
s off
f 9/107/19 10/133/20 12/109/21 11/110/22
f 11/61/23 12/62/24 6/63/25 5/64/26
f 8/9/27 6/10/28 12/11/29 10/134/30
f 11/15/31 5/16/32 7/17/33 9/143/34
f 7/99/35 8/131/36 14/105/37 13/142/38
f 8/132/39 10/12/40 15/13/41 14/141/42
f 10/108/43 9/144/44 16/111/45 15/140/46
f 9/18/47 7/145/48 13/19/49 16/138/50
f 13/142/51 14/105/52 18/106/53 17/135/54
f 14/141/55 15/13/56 19/14/57 18/139/58
f 15/140/59 16/111/60 20/112/61 19/137/62
f 16/138/63 13/19/64 17/20/65 20/136/66
f 29/113/67 30/114/68 26/115/69 25/116/70
f 30/21/71 31/22/72 27/23/73 33/24/74 26/25/75
f 31/117/76 32/118/77 28/119/78 37/120/79 36/121/80 27/122/81
f 32/26/82 29/27/83 25/28/84 34/29/85 28/30/86
f 17/155/87 18/156/88 22/157/89 21/158/90
f 18/147/91 19/148/92 23/149/93 22/150/94
f 19/159/95 20/160/96 24/161/97 23/162/98
f 20/151/99 17/152/100 21/153/101 24/154/102
f 23/1/103 24/2/104 32/3/105 31/4/106
f 22/65/107 23/66/108 24/67/109 21/68/110
f 31/69/111 30/70/112 29/71/113 32/72/114
f 39/73/115 40/74/116 41/75/117 42/76/118
s 1
f 36/57/119 35/54/16 33/53/15 27/58/120
f 34/56/18 38/55/17 37/59/121 28/60/122
s off
f 35/31/123 36/32/124 40/33/125 39/34/126
f 36/5/127 37/6/128 41/7/129 40/8/130
f 37/35/131 38/36/132 42/37/133 41/38/134
f 39/123/135 42/124/136 38/125/137 35/126/138
f 48/127/139 49/128/140 50/129/141 47/130/142
f 43/39/143 45/40/144 48/41/145 47/42/146
f 48/77/147 45/78/148 46/79/149 49/80/150
f 46/43/151 44/44/152 50/45/153 49/46/154
f 47/81/155 50/82/156 44/83/157 43/84/158
f 51/85/159 54/86/160 53/87/161 52/88/162
f 55/89/163 58/90/164 57/91/165 56/92/166
f 59/93/167 62/94/168 61/95/169 60/96/170
