# This file uses centimeters as units for non-parametric coordinates.

mtllib Wall.mtl
g default
v -0.500000 -0.500000 0.412275
v 0.500000 -0.500000 0.412275
v -0.500000 -0.210186 0.412275
v 0.500000 -0.210186 0.412275
v -0.500000 -0.210186 -0.412275
v 0.500000 -0.210186 -0.412275
v -0.500000 -0.500000 -0.412275
v 0.500000 -0.500000 -0.412275
v -0.500000 2.500000 0.250000
v 0.500000 2.500000 0.250000
v 0.500000 2.500000 -0.250000
v -0.500000 2.500000 -0.250000
v -0.500000 0.056818 0.250000
v 0.500000 0.056818 0.250000
v 0.500000 0.056818 -0.250000
v -0.500000 0.056818 -0.250000
vt 0.004423 0.939425
vt 0.004423 0.398534
vt 0.232634 0.398534
vt 0.442883 0.504984
vt 0.442883 0.832975
vt 0.848146 0.988163
vt 0.648934 0.988163
vt 0.004424 0.939425
vt 0.004423 0.398534
vt 0.232634 0.398534
vt 0.848146 0.014743
vt 0.442883 0.832975
vt 0.848146 0.988163
vt 0.648935 0.988163
vt 0.246085 0.268473
vt 0.246085 0.036789
vt 0.361927 0.036789
vt 0.361927 0.268473
vt 0.008640 0.331347
vt 0.008640 0.099662
vt 0.199676 0.099662
vt 0.199676 0.331347
vt 0.004424 0.996971
vt 0.004423 0.340988
vt 0.232634 0.340988
vt 0.442883 0.340988
vt 0.549329 0.014743
vt 0.947752 0.988163
vt 0.549329 0.988163
vt 0.214673 0.996971
vt 0.442883 0.340988
vt 0.442883 0.996971
vt 0.004423 0.996971
vt 0.004423 0.340988
vt 0.549329 0.014743
vt 0.947752 0.014743
vt 0.549329 0.988163
vt 0.648935 0.014743
vt 0.442883 0.996971
vt 0.442883 0.504984
vt 0.848146 0.014743
vt 0.947752 0.988163
vt 0.947752 0.014743
vt 0.648934 0.014743
vt 0.232634 0.939425
vt 0.214673 0.340988
vt 0.232634 0.939425
vt 0.232634 0.996971
vn 0.000000 0.000000 1.000000
vn 0.000000 0.000000 1.000000
vn 0.000000 0.279793 0.960060
vn 0.000000 0.279793 0.960060
vn 0.000000 1.000000 0.000000
vn 0.000000 1.000000 0.000000
vn 0.000000 1.000000 0.000000
vn 0.000000 1.000000 0.000000
vn 0.000000 0.279793 -0.960060
vn 0.000000 0.279793 -0.960060
vn 0.000000 0.000000 -1.000000
vn 0.000000 0.000000 -1.000000
vn 0.000000 -1.000000 0.000000
vn 0.000000 -1.000000 0.000000
vn 0.000000 -1.000000 0.000000
vn 0.000000 -1.000000 0.000000
vn 1.000000 0.000000 0.000000
vn 1.000000 0.000000 0.000000
vn 1.000000 0.000000 0.000000
vn 1.000000 0.000000 0.000000
vn -1.000000 0.000000 0.000000
vn -1.000000 0.000000 0.000000
vn -1.000000 0.000000 0.000000
vn -1.000000 0.000000 0.000000
vn 0.000000 0.059769 0.998212
vn 0.000000 0.059769 0.998212
vn 0.000000 0.000000 1.000000
vn 0.000000 0.000000 1.000000
vn 1.000000 0.000000 0.000000
vn 1.000000 0.000000 0.000000
vn 1.000000 0.000000 0.000000
vn 1.000000 0.000000 0.000000
vn 0.000000 0.059769 -0.998212
vn 0.000000 0.059769 -0.998212
vn 0.000000 0.000000 -1.000000
vn 0.000000 0.000000 -1.000000
vn -1.000000 0.000000 0.000000
vn -1.000000 0.000000 0.000000
vn -1.000000 0.000000 0.000000
vn -1.000000 0.000000 0.000000
s 1
g pCube1
usemtl initialShadingGroup
f 1/23/1 2/24/2 4/25/3 3/48/4
s off
f 9/15/5 10/16/6 11/17/7 12/18/8
s 2
f 5/30/9 6/46/10 8/31/11 7/32/12
s off
f 7/19/13 8/20/14 2/21/15 1/22/16
s 3
f 2/1/17 8/2/18 6/3/19 4/47/20
s 4
f 7/8/21 1/9/22 3/10/23 5/45/24
s 1
f 13/27/25 14/43/26 10/28/27 9/29/28
s 3
f 14/44/29 15/41/30 11/6/31 10/7/32
s 2
f 15/42/33 16/37/34 12/35/35 11/36/36
s 4
f 16/38/37 13/11/38 9/13/39 12/14/40
s 1
f 3/48/4 4/25/3 14/26/26 13/39/25
s 3
f 4/47/20 6/3/19 15/4/30 14/5/29
s 2
f 6/46/10 5/30/9 16/33/34 15/34/33
s 4
f 5/45/24 3/10/23 13/40/38 16/12/37
