# This file uses centimeters as units for non-parametric coordinates.

mtllib WallWindow.mtl
g default
v -0.500000 -0.500000 0.412275
v 0.500000 -0.500000 0.412275
v -0.500000 -0.210186 0.412275
v 0.500000 -0.210186 0.412275
v -0.500000 -0.210186 -0.412275
v 0.500000 -0.210186 -0.412275
v -0.500000 -0.500000 -0.412275
v 0.500000 -0.500000 -0.412275
v -0.500000 2.500000 0.250000
v 0.500000 2.500000 0.250000
v 0.500000 2.500000 -0.250000
v -0.500000 2.500000 -0.250000
v -0.500000 0.056818 0.250000
v 0.500000 0.056818 0.250000
v 0.500000 0.056818 -0.250000
v -0.500000 0.056818 -0.250000
v -0.500000 2.141959 0.250000
v -0.500000 2.141959 -0.250000
v 0.500000 2.141959 -0.250000
v 0.500000 2.141959 0.250000
v -0.500000 0.906319 0.250000
v 0.500000 0.906319 0.250000
v 0.500000 0.906319 -0.250000
v -0.500000 0.906319 -0.250000
vt 0.004423 0.939425
vt 0.004423 0.398534
vt 0.232634 0.398534
vt 0.442883 0.504984
vt 0.442883 0.832975
vt 0.848146 0.988163
vt 0.648934 0.988163
vt 0.004424 0.939425
vt 0.004423 0.398534
vt 0.232634 0.398534
vt 0.848146 0.014743
vt 0.442883 0.832975
vt 0.848146 0.988163
vt 0.648935 0.988163
vt 0.246085 0.268473
vt 0.246085 0.036789
vt 0.361927 0.036789
vt 0.361927 0.268473
vt 0.008640 0.331347
vt 0.008640 0.099662
vt 0.199676 0.099662
vt 0.199676 0.331347
vt 0.004424 0.996971
vt 0.004423 0.340988
vt 0.232634 0.340988
vt 0.442883 0.340988
vt 0.549329 0.014743
vt 0.947752 0.988163
vt 0.549329 0.988163
vt 0.214673 0.996971
vt 0.442883 0.340988
vt 0.442883 0.996971
vt 0.004423 0.996971
vt 0.004423 0.340988
vt 0.549329 0.014743
vt 0.947752 0.014743
vt 0.549329 0.988163
vt 0.648935 0.014743
vt 0.442883 0.996971
vt 0.442883 0.504984
vt 0.848146 0.014743
vt 0.947752 0.988163
vt 0.947752 0.014743
vt 0.648934 0.014743
vt 0.232634 0.939425
vt 0.214673 0.340988
vt 0.232634 0.939425
vt 0.232634 0.996971
vt 0.848146 0.845511
vt 0.549329 0.845511
vt 0.549329 0.157394
vt 0.648935 0.845511
vt 0.848146 0.845511
vt 0.947752 0.157394
vt 0.947752 0.845511
vt 0.648934 0.845511
vt 0.848146 0.353203
vt 0.549329 0.353203
vt 0.947752 0.353203
vt 0.648934 0.353203
vt 0.848146 0.353203
vt 0.947752 0.649702
vt 0.549329 0.649702
vt 0.648935 0.353203
vt 0.509848 0.620532
vt 0.509848 0.379468
vt 0.991974 0.379468
vt 0.991974 0.620532
vt 0.516559 0.380784
vt 0.993421 0.380784
vt 0.993421 0.619216
vt 0.516559 0.619216
vn 0.000000 0.000000 1.000000
vn 0.000000 0.000000 1.000000
vn 0.000000 0.279793 0.960060
vn 0.000000 0.279793 0.960060
vn 0.000000 1.000000 0.000000
vn 0.000000 1.000000 0.000000
vn 0.000000 1.000000 0.000000
vn 0.000000 1.000000 0.000000
vn 0.000000 0.279793 -0.960060
vn 0.000000 0.279793 -0.960060
vn 0.000000 0.000000 -1.000000
vn 0.000000 0.000000 -1.000000
vn 0.000000 -1.000000 0.000000
vn 0.000000 -1.000000 0.000000
vn 0.000000 -1.000000 0.000000
vn 0.000000 -1.000000 0.000000
vn 1.000000 0.000000 0.000000
vn 1.000000 0.000000 0.000000
vn 1.000000 0.000000 0.000000
vn 1.000000 0.000000 0.000000
vn -1.000000 0.000000 0.000000
vn -1.000000 0.000000 0.000000
vn -1.000000 0.000000 0.000000
vn -1.000000 0.000000 0.000000
vn 0.000000 0.143831 0.989602
vn 0.000000 0.143831 0.989602
vn 1.000000 0.000000 0.000000
vn 1.000000 0.000000 0.000000
vn 0.000000 0.143831 -0.989602
vn 0.000000 0.143831 -0.989602
vn -1.000000 0.000000 0.000000
vn -1.000000 0.000000 0.000000
vn -1.000000 0.000000 0.000000
vn -1.000000 0.000000 0.000000
vn -1.000000 0.000000 0.000000
vn -1.000000 0.000000 0.000000
vn 0.000000 0.000000 -1.000000
vn 0.000000 0.000000 -1.000000
vn 0.000000 0.000000 -1.000000
vn 0.000000 0.000000 -1.000000
vn 1.000000 0.000000 0.000000
vn 1.000000 0.000000 0.000000
vn 1.000000 0.000000 0.000000
vn 1.000000 0.000000 0.000000
vn 0.000000 0.000000 1.000000
vn 0.000000 0.000000 1.000000
vn 0.000000 0.000000 1.000000
vn 0.000000 0.000000 1.000000
vn 0.000000 0.000000 1.000000
vn 0.000000 0.000000 1.000000
vn 1.000000 0.000000 0.000000
vn 1.000000 0.000000 0.000000
vn 0.000000 0.000000 -1.000000
vn 0.000000 0.000000 -1.000000
vn -1.000000 0.000000 0.000000
vn -1.000000 0.000000 0.000000
vn 0.000000 -1.000000 0.000000
vn 0.000000 -1.000000 0.000000
vn 0.000000 -1.000000 0.000000
vn 0.000000 -1.000000 0.000000
vn 0.000000 1.000000 0.000000
vn 0.000000 1.000000 0.000000
vn 0.000000 1.000000 0.000000
vn 0.000000 1.000000 0.000000
s 1
g pCube1
usemtl initialShadingGroup
f 1/23/1 2/24/2 4/25/3 3/48/4
s off
f 9/15/5 10/16/6 11/17/7 12/18/8
s 2
f 5/30/9 6/46/10 8/31/11 7/32/12
s off
f 7/19/13 8/20/14 2/21/15 1/22/16
s 3
f 2/1/17 8/2/18 6/3/19 4/47/20
s 4
f 7/8/21 1/9/22 3/10/23 5/45/24
s 1
f 3/48/4 4/25/3 14/26/25 13/39/26
s 3
f 4/47/20 6/3/19 15/4/27 14/5/28
s 2
f 6/46/10 5/30/9 16/33/29 15/34/30
s 4
f 5/45/24 3/10/23 13/40/31 16/12/32
s off
f 18/52/33 17/49/34 9/13/35 12/14/36
f 19/54/37 18/51/38 12/35/39 11/36/40
f 20/56/41 19/53/42 11/6/43 10/7/44
f 17/50/45 20/55/46 10/28/47 9/29/48
s 1
f 13/27/26 14/43/25 22/59/49 21/58/50
s 3
f 14/44/28 15/41/27 23/61/51 22/60/52
s 2
f 15/42/30 16/37/29 24/63/53 23/62/54
s 4
f 16/38/32 13/11/31 21/57/55 24/64/56
s off
f 18/69/57 19/70/58 20/71/59 17/72/60
f 22/65/61 23/66/62 24/67/63 21/68/64
